<svg xmlns="http://www.w3.org/2000/svg" viewBox="0 0 1040 610" role="img" aria-label="Original gothic inventory room">
  <defs>
    <linearGradient id="room" x1="0" x2="1" y1="0" y2="1">
      <stop offset="0" stop-color="#2e2141"/>
      <stop offset=".46" stop-color="#402f3b"/>
      <stop offset="1" stop-color="#16181b"/>
    </linearGradient>
    <radialGradient id="gem" cx=".5" cy=".5" r=".55">
      <stop offset="0" stop-color="#aaf4ff" stop-opacity=".8"/>
      <stop offset="1" stop-color="#44b6d4" stop-opacity="0"/>
    </radialGradient>
  </defs>
  <rect width="1040" height="610" fill="url(#room)"/>
  <path d="M0 418 H1040 V610 H0 Z" fill="#18141a"/>
  <g transform="translate(74 86)">
    <rect width="334" height="382" rx="8" fill="#191b1e" stroke="#c99a55" stroke-width="8"/>
    <g fill="#293033" stroke="#6e5a44" stroke-width="3">
      <rect x="30" y="34" width="64" height="64" rx="6"/>
      <rect x="110" y="34" width="64" height="64" rx="6"/>
      <rect x="190" y="34" width="64" height="64" rx="6"/>
      <rect x="30" y="118" width="64" height="64" rx="6"/>
      <rect x="110" y="118" width="64" height="64" rx="6"/>
      <rect x="190" y="118" width="64" height="64" rx="6"/>
      <rect x="30" y="202" width="64" height="64" rx="6"/>
      <rect x="110" y="202" width="64" height="64" rx="6"/>
      <rect x="190" y="202" width="64" height="64" rx="6"/>
      <rect x="30" y="286" width="64" height="64" rx="6"/>
      <rect x="110" y="286" width="64" height="64" rx="6"/>
      <rect x="190" y="286" width="64" height="64" rx="6"/>
    </g>
    <circle cx="286" cy="74" r="34" fill="url(#gem)"/>
    <circle cx="286" cy="190" r="30" fill="url(#gem)"/>
  </g>
  <g transform="translate(692 92)" fill="#202226" stroke="#c99a55" stroke-width="7">
    <rect width="248" height="352" rx="8"/>
    <circle cx="124" cy="72" r="34"/>
    <rect x="76" y="124" width="96" height="148" rx="12"/>
    <rect x="56" y="292" width="54" height="48" rx="6"/>
    <rect x="138" y="292" width="54" height="48" rx="6"/>
  </g>
  <g fill="#5e3d2b" stroke="#c99a55" stroke-width="5">
    <rect x="454" y="126" width="68" height="68" rx="8"/>
    <rect x="536" y="126" width="68" height="68" rx="8"/>
    <rect x="454" y="314" width="68" height="68" rx="8"/>
    <rect x="536" y="314" width="68" height="68" rx="8"/>
    <circle cx="530" cy="252" r="70" fill="#201b20"/>
  </g>
  <path d="M460 510 C560 474 690 482 780 524" fill="none" stroke="#77543a" stroke-width="18" opacity=".72"/>
</svg>
